<svg width="72" height="72" viewBox="0 0 72 72" fill="none" xmlns="http://www.w3.org/2000/svg">
<path d="M71.5004 0.499634H0.499619V71.5004H71.5004V0.499634Z" stroke="#FF3A7A" stroke-miterlimit="10"/>
<path d="M15.0475 11.6401V20.1746H13.1699V11.6401H15.0475Z" fill="#FF3A7A"/>
<path d="M33.5414 11.6401L37.1077 17.3688H37.1286V11.6401H38.8903V20.1746H37.0017L33.4464 14.457H33.4255V20.1746H31.6638V11.6401H33.5414Z" fill="#FF3A7A"/>
<path d="M37.8781 59.5156C37.118 60.1151 36.1646 60.4155 35.1981 60.3599C34.2323 60.4246 33.277 60.1275 32.5182 59.5265C32.1811 59.1909 31.9215 58.7856 31.7575 58.3391C31.5935 57.8925 31.5292 57.4155 31.5689 56.9415V51.6346H33.4464V56.9415C33.4465 57.1714 33.4675 57.4009 33.5094 57.627C33.5474 57.8406 33.6339 58.0426 33.7622 58.2175C33.9044 58.3957 34.0847 58.5397 34.2898 58.6392C34.5812 58.7566 34.8943 58.8104 35.2081 58.7971C35.4567 58.8256 35.7084 58.8008 35.9467 58.7245C36.185 58.6482 36.4043 58.522 36.59 58.3544C36.8752 57.9463 37.0094 57.4517 36.9698 56.9555V51.6485H38.8473V56.9445C38.8801 57.4176 38.8105 57.8921 38.6432 58.3358C38.476 58.7795 38.215 59.1819 37.8781 59.5156Z" fill="#FF3A7A"/>
<path d="M17.0939 31.6848V33.2676H12.9691V35.2401H16.5454V36.696H12.9691V40.2193H11.0915V31.6848H17.0939Z" fill="#FF3A7A"/>
<path d="M34.09 31.6848V38.6375H38.2468V40.2203H32.2124V31.6848H34.09Z" fill="#FF3A7A"/>
<path d="M60.0222 31.6848V33.2676H55.5176V35.0932H59.6534V36.5491H55.5176V38.6375H60.1141V40.2203H53.639V31.6848H60.0222Z" fill="#FF3A7A"/>
<path d="M53.0275 51.7295H55.2038L56.8815 54.4514L58.6122 51.7295H60.6697L57.9377 55.8014L60.9125 60.264H58.6712L56.8036 57.3102L54.9051 60.264H52.8067L55.7814 55.7904L53.0275 51.7295Z" fill="#FF3A7A"/>
<path d="M58.3124 15.8709C58.3087 16.1613 58.2199 16.4442 58.057 16.6846C57.8941 16.925 57.6642 17.1124 57.3959 17.2235C57.1276 17.3347 56.8326 17.3647 56.5474 17.3098C56.2622 17.255 55.9993 17.1178 55.7914 16.9151C55.5283 16.6323 55.3854 16.2582 55.3929 15.872C55.4005 15.4858 55.5578 15.1176 55.8317 14.8453C56.1056 14.5729 56.4747 14.4177 56.861 14.4123C57.2472 14.407 57.6204 14.552 57.9017 14.8167C58.0386 14.955 58.1457 15.1199 58.2164 15.3012C58.287 15.4825 58.3197 15.6764 58.3124 15.8709Z" fill="#FF3A7A"/>
<path d="M15.5861 55.9603C15.5823 56.2507 15.4935 56.5336 15.3306 56.774C15.1677 57.0144 14.9379 57.2018 14.6696 57.313C14.4013 57.4241 14.1062 57.4541 13.8211 57.3993C13.5359 57.3444 13.273 57.2072 13.065 57.0045C12.8019 56.7216 12.6591 56.3476 12.6666 55.9614C12.6741 55.5752 12.8315 55.2071 13.1054 54.9347C13.3793 54.6624 13.7484 54.5071 14.1346 54.5018C14.5209 54.4964 14.8941 54.6414 15.1754 54.9061C15.3123 55.0444 15.4194 55.2093 15.49 55.3906C15.5607 55.5719 15.5934 55.7658 15.5861 55.9603Z" fill="#FF3A7A"/>
</svg>
